<svg xmlns="http://www.w3.org/2000/svg" viewBox="0 0 629.68 248.33"><defs><style>.cls-1{fill:#4dab47;}</style></defs><g id="Layer_2" data-name="Layer 2"><g id="Layer_1-2" data-name="Layer 1"><path class="cls-1" d="M292.66,160.92c6.32-5.47,15-8,24.16-8.42-3.09-30.48-26.27-74.87,5.06-89.34,24.58-11.38,42.14,15.73,23.17,34-3.23-4.07-2.1-5.33-4.21-2.81-5.76,7,.84,34.14-1.4,59.28,25.42,2.81,49.3,10.11,59.41,2.81,5.62,21.35-9.41,45.79-48.88,28.37-8-3.37-12.5-5.76-17.14-7.16-4.35,6.74-12.22,15.31-21.77,17.56C288.73,200.11,277.21,174,292.66,160.92Zm16.72,17a16.69,16.69,0,0,0,4.35-2.95,12.85,12.85,0,0,0-4.21,1.69C306.85,178.48,307,178.9,309.38,177.92Z" transform="translate(0 0)"/><path class="cls-1" d="M387.05,83c10-1.55,18.68,1.54,23.74,6.32a13.89,13.89,0,0,1,7.16-6c8.57-3.79,18.54,0,23.74,9-5.76-.84-9,10.11-6.46,27,1.54,10.67,6.32,7.58,5.34,3.09,11.23,3.93,11.65,31.88-7,35.53-9,1.69-16.43-3.65-20.5-11.23-5.76,9.55-15.74,15.73-27.11,14.18C350,155.59,353.9,88.45,387.05,83Zm11.38,53.23c3.65,0,7.16-4.77,9-11.8l-.14-15.31c-2.39-6.32-5.62-9.83-9.7-8.85C385.64,103.19,387.89,136.2,398.43,136.2Z" transform="translate(0 0)"/><path class="cls-1" d="M499.56,106.42c-7.17-2.66-17.42,14.61-18.54,26.41-1.55,9.83.28,14.89,5.19,13.21-2,19.1-43.4,21.35-36.8-20.37,2.81-17.84,0-20.79-3-20.23-4.77-11.24,3-22.61,15.59-22.61,9.41,0,16.3,5,19,15.59,7.3-9.41,18.12-18.26,32.58-15.31,38.07,7.86.71,76.69,21.5,70.37-2.39,12.78-24,21.63-34.7,7.44C487.76,144.21,510.51,110.5,499.56,106.42Z" transform="translate(0 0)"/><path class="cls-1" d="M562.06,81.56c9.13-1.26,16.15.56,21.77,4.64-1.12-21.07-2.1-35.68,9.83-43.13,14.61-9.27,35.68,5.62,30.34,13.77-12.92-5.06-7.86,56.05-5.89,64.75,1.26,5.9,2.81,5.06,4.77,3.1,9.41.28,12.36,34.27-13.34,34.27-11.8,0-17.7-5.34-21.07-12.64-5.06,7-13.49,12.92-23.74,12.92C520.34,159.24,527.79,86.34,562.06,81.56Zm22.05,42.14c-.7-3.93-.7-8-.7-13.48-2.39-5.06-6.18-8.29-10.39-6.75-10.82,3.66-10.26,32.73-1.13,34.14C577.51,138.45,582.71,131.71,584.11,123.7Z" transform="translate(0 0)"/><path class="cls-1" d="M548,192.82V171.28a3.18,3.18,0,0,1,3.4-3.53c2.13,0,3.4,1.29,3.4,3.53v20.94c0,5.19,3.19,8.72,8.83,8.72s8.86-3.53,8.86-8.72V171.28c0-2.24,1.27-3.53,3.4-3.53s3.38,1.29,3.38,3.53v21.54c0,8.31-6,14.06-15.64,14.06S548,201.13,548,192.82Z" transform="translate(0 0)"/><path class="cls-1" d="M593.76,203.16V171.28a3.18,3.18,0,0,1,3.4-3.53c2.14,0,3.4,1.29,3.4,3.53v14.37h.24l15.29-16.51a3.63,3.63,0,0,1,2.85-1.42,3.08,3.08,0,0,1,3.16,3.11,3.38,3.38,0,0,1-1.1,2.48l-11.45,11.94,12.58,15.22a4.79,4.79,0,0,1,1.32,3,3.22,3.22,0,0,1-3.27,3.27,3.9,3.9,0,0,1-3.32-1.82l-12.34-15.08-4,4.19v9.15c0,2.24-1.26,3.53-3.4,3.53A3.18,3.18,0,0,1,593.76,203.16Z" transform="translate(0 0)"/><path class="cls-1" d="M0,30.33C20,2.13,64.86.72,79.52,31.74,100.67,76.86,67.11,193,99.82,193c15.23,0,29.89-64.85,33-124.91-34.12-13-32.14-54.14-6.76-64.86,21.43-9.31,36.65,2.54,41.73,20,10.71-2.26,24-9,24.53-14.38,32.71,24.53,17.2,61.47-21.43,64.29-5.92,64.58-27.07,173.7-87.7,175.11C-14.66,250.84,41.17,46.12,0,30.33Z" transform="translate(0 0)"/><path class="cls-1" d="M176.8,159.76c-6.2-8.74-21.71-51.32,47.38-51.32h52.45c4.23,11.56,6.48,50.76-44.56,50.76C202.18,159.2,180.75,153,176.8,159.76Z" transform="translate(0 0)"/></g></g></svg>